<svg xmlns="http://www.w3.org/2000/svg" viewBox="0 0 1200 630" role="img" aria-labelledby="ogTitle ogDesc">
  <title id="ogTitle">RentalHub NG</title>
  <desc id="ogDesc">RentalHub NG — Find and manage properties in Nigeria</desc>
  <defs>
    <linearGradient id="bg" x1="0" y1="0" x2="1200" y2="630" gradientUnits="userSpaceOnUse">
      <stop offset="0" stop-color="#0f172a"/>
      <stop offset="0.4" stop-color="#1e3a5f"/>
      <stop offset="0.75" stop-color="#0ea5e9"/>
      <stop offset="1" stop-color="#38bdf8"/>
    </linearGradient>
    <linearGradient id="pinGrad" x1="0" y1="0" x2="1" y2="1">
      <stop offset="0" stop-color="#facc15"/>
      <stop offset="0.5" stop-color="#f59e0b"/>
      <stop offset="1" stop-color="#22c55e"/>
    </linearGradient>
    <linearGradient id="roofGrad" x1="0" y1="0" x2="1" y2="1">
      <stop offset="0" stop-color="#38bdf8"/>
      <stop offset="1" stop-color="#1d4ed8"/>
    </linearGradient>
    <filter id="glow">
      <feDropShadow dx="0" dy="8" stdDeviation="32" flood-color="#0f172a" flood-opacity="0.3"/>
    </filter>
    <filter id="textGlow">
      <feDropShadow dx="0" dy="4" stdDeviation="12" flood-color="#0ea5e9" flood-opacity="0.4"/>
    </filter>
  </defs>

  <rect width="1200" height="630" fill="url(#bg)"/>

  <circle cx="1050" cy="80" r="320" fill="#ffffff" opacity="0.04"/>
  <circle cx="1100" cy="50" r="180" fill="#38bdf8" opacity="0.06"/>
  <circle cx="150" cy="550" r="260" fill="#ffffff" opacity="0.03"/>
  <circle cx="200" cy="520" r="140" fill="#0ea5e9" opacity="0.05"/>
  <line x1="0" y1="628" x2="1200" y2="628" stroke="#facc15" stroke-width="4" opacity="0.3"/>

  <g transform="translate(110, 165) scale(1.25)" filter="url(#glow)">
    <rect x="0" y="0" width="200" height="200" rx="44" fill="url(#bg)" opacity="0.95"/>
    <rect x="4" y="4" width="192" height="192" rx="42" fill="#0f172a" opacity="0.15"/>
    <g transform="translate(100, 100)">
      <circle cx="0" cy="0" r="65" fill="#ffffff" opacity="0.08"/>
      <circle cx="0" cy="0" r="51" fill="#0f172a" opacity="0.2"/>
      <path d="M0-54.7c-35.7 0-64.6 28.4-64.6 63.4 0 45.1 50 87.6 59.1 95.2a9.6 9.6 0 0 0 12.2 0c9.1-7.6 59.1-50.1 59.1-95.2 0-35-28.9-63.4-64.6-63.4Zm0 98c-19.7 0-35.6-15.7-35.6-35s15.9-35 35.6-35 35.6 15.7 35.6 35-15.9 35-35.6 35Z" fill="url(#pinGrad)"/>
      <path d="M-48.9 14.6 0-24.4l48.9 39.1-12.7 15.3L0-1.7l-36.2 29.9L-48.9 14.6Z" fill="url(#roofGrad)"/>
      <path d="M-31.3 27.2 0 0l31.3 25.9v35a7 7 0 0 1-7 7H-24.3a7 7 0 0 1-7-7v-35Z" fill="#f8fafc"/>
      <rect x="-18.8" y="38.4" width="17.6" height="30.5" rx="3.9" fill="#16a34a"/>
      <rect x="6.8" y="35" width="11" height="11" rx="2" fill="#2563eb"/>
      <rect x="21.2" y="35" width="11" height="11" rx="2" fill="#2563eb"/>
      <rect x="6.8" y="50.2" width="11" height="11" rx="2" fill="#2563eb"/>
      <rect x="21.2" y="50.2" width="11" height="11" rx="2" fill="#2563eb"/>
      <line x1="-36" y1="82.8" x2="36" y2="82.8" stroke="#facc15" stroke-width="7" stroke-linecap="round"/>
    </g>
  </g>

  <text x="420" y="235" font-family="Inter, 'Segoe UI', system-ui, sans-serif" font-size="72" font-weight="800" fill="#ffffff" letter-spacing="-1.5" filter="url(#textGlow)">Rental</text>
  <text x="420" y="235" font-family="Inter, 'Segoe UI', system-ui, sans-serif" font-size="72" font-weight="300" fill="#facc15" letter-spacing="-1.5" filter="url(#textGlow)">
    <tspan dx="375">NG</tspan>
  </text>

  <rect x="420" y="260" width="64" height="4" rx="2" fill="#22c55e"/>

  <text x="420" y="330" font-family="Inter, 'Segoe UI', system-ui, sans-serif" font-size="26" font-weight="400" fill="#94a3b8" letter-spacing="0.5">Find &amp; Manage Properties in Nigeria</text>

  <g transform="translate(420, 380)">
    <rect x="0" y="0" width="180" height="44" rx="22" fill="#0ea5e9" opacity="0.15" stroke="#0ea5e9" stroke-width="1" stroke-opacity="0.4"/>
    <text x="90" y="28" font-family="Inter, 'Segoe UI', system-ui, sans-serif" font-size="15" font-weight="600" fill="#7dd3fc" text-anchor="middle">Available on iOS &amp; Android</text>
  </g>
</svg>
